<?xml version="1.0" encoding="UTF-8"?>
<svg id="Layer_1" xmlns="http://www.w3.org/2000/svg" version="1.1" viewBox="0 0 850 180">
  <!-- Generator: Adobe Illustrator 29.0.1, SVG Export Plug-In . SVG Version: 2.1.0 Build 192)  -->
  <defs>
    <style>
      .st0 {
        fill: #008761;
      }

      .st1 {
        fill: #fff;
      }
    </style>
  </defs>
  <path class="st0" d="M55.4,93.6c-21,0-38.1-17.1-38.1-38.1S34.4,17.4,55.4,17.4s38.1,17.1,38.1,38.1-17.1,38.1-38.1,38.1Z"/>
  <path class="st1" d="M144.4,5.3l-30.2,17.9c-5.5,3.2-12.5,2-16.5-2.8C87.4,8.1,72,.4,54.8.6,25.1.9.9,25.1.5,54.7c-.4,30.7,24.3,55.7,54.9,55.7h.1c6.6,0,12,5.2,12,11.9v33.7c0,11.4,9.2,20.7,20.7,20.7h145.6c11.4,0,20.7-9.2,20.7-20.7v-84c0-9.7-4.9-18.7-13-24L177.8,6.1c-10.1-6.6-23-6.9-33.4-.8ZM55.4,89.6c-18.8,0-34.1-15.3-34.1-34.1s15.3-34.1,34.1-34.1,34.1,15.3,34.1,34.1-15.3,34.1-34.1,34.1ZM161,30.1c9,0,16.3,7.3,16.3,16.5s-7.3,16.5-16.3,16.5-16.3-7.3-16.3-16.5,7.3-16.5,16.3-16.5ZM209.4,78.7c-8.2,3.8-18.8,7.8-26.7,10.7-1.5.6-2.4,2.1-2.1,3.7,2.6,13.2,13.9,47.6,19.5,61.3.2.4,0,.9-.5,1.1l-6.7,2.3c-4.1,1.4-8.7-.5-10.4-4.5-5.6-12.7-12.8-28-18.2-36.8-1.5-2.4-4.9-2.4-6.3,0-5.4,8.7-12.6,24.1-18.2,36.8-1.8,4-6.3,6-10.4,4.5l-6.7-2.3c-.4-.1-.7-.6-.5-1.1,5.6-13.7,16.9-48.1,19.5-61.3.3-1.6-.6-3.2-2.1-3.7-8-3-18.6-7-26.7-10.7-4-1.8-5.9-6.5-4.4-10.6l2.7-7.1c.2-.5.8-.7,1.2-.5,6,3.1,27.1,12.8,48.9,12.8s42.8-9.7,48.9-12.8c.5-.2,1,0,1.2.5l2.7,7.1c1.6,4.1-.4,8.8-4.4,10.6Z"/>
  <g>
    <path class="st1" d="M333.4,169.8c-10.2-6.2-18.2-15.1-23.9-26.6-5.8-11.4-8.6-24.8-8.6-39.9s2.9-28.5,8.6-39.9,13.7-20.3,23.9-26.6,21.7-9.4,34.5-9.4,24.5,3.1,34.7,9.4,18.2,15.1,23.9,26.6c5.8,11.5,8.6,24.8,8.6,39.9s-2.9,28.5-8.6,39.9c-5.8,11.5-13.7,20.3-23.9,26.6-10.2,6.2-21.8,9.4-34.7,9.4s-24.3-3.1-34.5-9.4h0ZM342.4,137.9c6.2,8.7,14.7,13.1,25.5,13.1s19.5-4.4,25.7-13.1c6.2-8.7,9.3-20.2,9.3-34.6s-3.1-25.8-9.3-34.6c-6.2-8.7-14.8-13.1-25.7-13.1s-19.3,4.4-25.5,13.1-9.3,20.2-9.3,34.6,3.1,25.9,9.3,34.6Z"/>
    <path class="st1" d="M454.7,30.6h69.8c8.4,0,16,1.6,22.5,4.7,6.6,3.2,11.7,7.5,15.4,13,3.7,5.5,5.5,11.5,5.5,18.1s-2.3,15.1-7,20.5c-4.6,5.3-11,9.1-19.2,11.2,10,2.1,17.7,6.4,23.3,12.8,5.5,6.4,8.3,14.4,8.3,23.9s-1.9,14.5-5.7,20.9c-3.8,6.3-9.2,11.3-16.2,15-7,3.7-15,5.5-24,5.5h-72.7V30.6h0ZM519,87.3c5.1,0,9.2-1.3,12.4-3.9,3.2-2.6,4.8-6.3,4.8-11.1s-1.6-8.7-4.8-11.3-7.4-3.9-12.4-3.9h-33.1v30.1h33.1ZM522.6,148.9c5.3,0,9.8-1.5,13.5-4.6,3.7-3.1,5.5-7.4,5.5-13.1s-1.8-9.8-5.5-13.1c-3.7-3.2-8.2-4.8-13.5-4.8h-36.7v35.6h36.7Z"/>
    <path class="st1" d="M618.2,169.8c-10.2-6.2-18.2-15.1-23.9-26.6-5.8-11.4-8.6-24.8-8.6-39.9s2.9-28.5,8.6-39.9,13.7-20.3,23.9-26.6,21.7-9.4,34.5-9.4,24.5,3.1,34.7,9.4c10.2,6.2,18.2,15.1,23.9,26.6,5.8,11.5,8.6,24.8,8.6,39.9s-2.9,28.5-8.6,39.9c-5.8,11.5-13.7,20.3-23.9,26.6-10.2,6.2-21.8,9.4-34.7,9.4s-24.3-3.1-34.5-9.4ZM627.1,137.9c6.2,8.7,14.7,13.1,25.5,13.1s19.5-4.4,25.7-13.1c6.2-8.7,9.3-20.2,9.3-34.6s-3.1-25.8-9.3-34.6c-6.2-8.7-14.8-13.1-25.7-13.1s-19.3,4.4-25.5,13.1-9.3,20.2-9.3,34.6,3.1,25.9,9.3,34.6Z"/>
    <path class="st1" d="M751.7,168.8c-11-7.1-18.2-17.2-21.7-30.2l29.3-13.7c1.1,8.7,4.9,15.6,11.3,20.8,6.4,5.1,13.9,7.7,22.5,7.7s14.3-1.8,18.5-5.3c4.2-3.5,6.3-7.9,6.3-13.3s-1.6-8.5-4.8-11.1c-3.2-2.6-8.4-4.5-15.6-5.8l-16.7-3.6c-30.6-6-46-19.8-46-41.3s2.2-15.5,6.8-22.5c4.5-7,10.9-12.5,19.1-16.8s17.7-6.3,28.3-6.3,26.7,3.3,36.8,9.8c10,6.5,17,15.4,21,26.7l-27.6,13.3c-1.7-7.7-5.3-13.7-10.9-17.8-5.5-4.1-12.1-6.2-19.7-6.2s-12.7,1.7-16.7,5c-3.9,3.3-5.9,7.3-5.9,12.1s1.7,7.7,5.2,10,9.1,4.3,17,6l16.4,3.2c14.6,3.1,25.8,7.8,33.4,14.1s11.5,15.9,11.5,28.9-2.4,16.4-7.3,23.6c-4.8,7.2-11.6,12.9-20.2,17.1-8.6,4.2-18.3,6.3-29,6.3-16.6,0-30.3-3.6-41.3-10.6h0s0,0,0,0Z"/>
  </g>
</svg>