<?xml version="1.0" encoding="UTF-8"?>
<svg id="Layer_1" data-name="Layer 1" xmlns="http://www.w3.org/2000/svg" viewBox="0 0 775.28 702">
  <defs>
    <style>
      .cls-1 {
        fill: #fff;
      }
    </style>
  </defs>
  <path class="cls-1" d="M355.7,11.72l-67.86,40.06c-12.25,7.23-27.95,4.56-37.05-6.37C227.89,17.92,193.25.55,154.56,1.01,88.07,1.79,33.73,56.01,32.81,122.5c-.96,68.88,54.59,125.01,123.24,125.01.09,0,.19,0,.28,0,14.83-.03,26.95,11.78,26.95,26.62v75.52c0,25.61,20.76,46.37,46.37,46.37h326.62c25.61,0,46.37-20.76,46.37-46.37v-188.56c0-21.71-10.94-41.96-29.1-53.87L430.56,13.48c-22.58-14.8-51.61-15.48-74.86-1.76ZM156.05,200.82c-42.22,0-76.56-34.35-76.56-76.56s34.35-76.56,76.56-76.56,76.56,34.35,76.56,76.56-34.35,76.56-76.56,76.56ZM393.01,67.18c20.2,0,36.53,16.33,36.53,36.96s-16.33,36.96-36.53,36.96-36.53-16.33-36.53-36.96,16.33-36.96,36.53-36.96ZM501.58,176.29c-18.38,8.46-42.06,17.46-60,24.1-3.42,1.27-5.43,4.81-4.74,8.39,5.71,29.57,31.18,106.84,43.69,137.54.4.98-.11,2.08-1.1,2.43l-15.03,5.25c-9.27,3.24-19.47-1.18-23.44-10.16-12.59-28.53-28.69-62.9-40.83-82.49-3.28-5.29-10.95-5.29-14.23,0-12.14,19.6-28.24,53.96-40.83,82.49-3.96,8.98-14.17,13.4-23.44,10.16l-15.03-5.25c-1-.35-1.5-1.45-1.1-2.43,12.51-30.7,37.97-107.97,43.69-137.54.69-3.58-1.32-7.13-4.74-8.39-17.94-6.65-41.61-15.64-60-24.1-9-4.14-13.3-14.51-9.81-23.78l6.02-16.01c.41-1.09,1.67-1.58,2.71-1.05,13.55,6.92,60.86,28.75,109.65,28.75,48.78,0,96.1-21.82,109.65-28.75,1.04-.53,2.3-.04,2.71,1.05l6.02,16.01c3.49,9.27-.81,19.64-9.81,23.78Z"/>
  <g>
    <path class="cls-1" d="M46.99,687.49c-14.36-8.81-25.59-21.28-33.71-37.42-8.12-16.14-12.18-34.9-12.18-56.28s4.06-40.14,12.18-56.28c8.12-16.13,19.35-28.61,33.71-37.42,14.35-8.81,30.54-13.22,48.56-13.22s34.5,4.41,48.86,13.22c14.35,8.81,25.59,21.29,33.71,37.42,8.12,16.14,12.18,34.9,12.18,56.28s-4.06,40.15-12.18,56.28c-8.12,16.14-19.36,28.61-33.71,37.42-14.36,8.81-30.64,13.22-48.86,13.22s-34.21-4.41-48.56-13.22ZM59.61,642.49c8.71,12.28,20.69,18.41,35.94,18.41s27.52-6.13,36.23-18.41c8.71-12.27,13.07-28.51,13.07-48.71s-4.36-36.43-13.07-48.71c-8.72-12.27-20.79-18.41-36.23-18.41s-27.23,6.14-35.94,18.41c-8.72,12.28-13.07,28.51-13.07,48.71s4.35,36.43,13.07,48.71Z"/>
    <path class="cls-1" d="M217.91,491.32h98.31c11.88,0,22.47,2.23,31.78,6.68,9.3,4.46,16.53,10.54,21.68,18.27,5.15,7.72,7.72,16.24,7.72,25.54,0,11.68-3.27,21.29-9.8,28.81-6.53,7.53-15.55,12.77-27.03,15.74,14.06,2.97,24.99,8.96,32.82,17.97,7.82,9.01,11.73,20.25,11.73,33.71,0,10.69-2.67,20.49-8.02,29.4s-12.97,15.94-22.87,21.09c-9.9,5.15-21.19,7.72-33.86,7.72h-102.46v-204.93ZM308.49,571.21c7.13,0,12.97-1.83,17.52-5.49,4.55-3.66,6.83-8.86,6.83-15.59s-2.28-12.22-6.83-15.89c-4.56-3.66-10.4-5.49-17.52-5.49h-46.63v42.47h46.63ZM313.54,657.94c7.52,0,13.86-2.18,19.01-6.53,5.15-4.35,7.72-10.49,7.72-18.41s-2.58-13.86-7.72-18.41c-5.15-4.55-11.49-6.83-19.01-6.83h-51.68v50.19h51.68Z"/>
    <path class="cls-1" d="M448.23,687.49c-14.36-8.81-25.59-21.28-33.71-37.42-8.12-16.14-12.18-34.9-12.18-56.28s4.06-40.14,12.18-56.28c8.12-16.13,19.35-28.61,33.71-37.42,14.35-8.81,30.54-13.22,48.56-13.22s34.5,4.41,48.86,13.22c14.35,8.81,25.59,21.29,33.71,37.42,8.12,16.14,12.18,34.9,12.18,56.28s-4.06,40.15-12.18,56.28c-8.12,16.14-19.36,28.61-33.71,37.42-14.36,8.81-30.64,13.22-48.86,13.22s-34.21-4.41-48.56-13.22ZM460.85,642.49c8.71,12.28,20.69,18.41,35.94,18.41s27.52-6.13,36.23-18.41c8.71-12.27,13.07-28.51,13.07-48.71s-4.36-36.43-13.07-48.71c-8.72-12.27-20.79-18.41-36.23-18.41s-27.23,6.14-35.94,18.41c-8.71,12.28-13.07,28.51-13.07,48.71s4.35,36.43,13.07,48.71Z"/>
    <path class="cls-1" d="M636.37,686c-15.44-10-25.64-24.2-30.59-42.62l41.28-19.3c1.58,12.28,6.88,22.03,15.89,29.25,9.01,7.23,19.55,10.84,31.63,10.84s20.2-2.47,26.13-7.42c5.94-4.95,8.91-11.18,8.91-18.71,0-6.73-2.28-11.93-6.83-15.59-4.56-3.66-11.88-6.39-21.98-8.17l-23.46-5.05c-43.17-8.51-64.74-27.92-64.74-58.21,0-11.29,3.16-21.83,9.5-31.63,6.34-9.8,15.3-17.67,26.88-23.61,11.58-5.94,24.9-8.91,39.95-8.91,20.39,0,37.67,4.6,51.83,13.81,14.15,9.21,24.01,21.73,29.55,37.57l-38.91,18.71c-2.38-10.89-7.48-19.25-15.3-25.1-7.82-5.84-17.08-8.76-27.77-8.76-10.1,0-17.92,2.33-23.46,6.98-5.55,4.65-8.32,10.35-8.32,17.08,0,6.14,2.42,10.84,7.28,14.11,4.85,3.27,12.82,6.09,23.91,8.46l23.17,4.46c20.59,4.36,36.28,10.99,47.07,19.9,10.79,8.91,16.19,22.47,16.19,40.69,0,12.08-3.41,23.17-10.25,33.26-6.83,10.1-16.33,18.12-28.51,24.06-12.18,5.94-25.79,8.91-40.84,8.91-23.37,0-42.77-5-58.21-15Z"/>
  </g>
</svg>