<?xml version="1.0" encoding="UTF-8"?>
<svg id="Layer_1" xmlns="http://www.w3.org/2000/svg" version="1.1" viewBox="0 0 775.3 702">
  <!-- Generator: Adobe Illustrator 29.0.1, SVG Export Plug-In . SVG Version: 2.1.0 Build 192)  -->
  <defs>
    <style>
      .st0 {
        fill: #008761;
      }

      .st1 {
        fill: #fff;
      }
    </style>
  </defs>
  <path class="st0" d="M156.1,212.1c-48.4,0-87.8-39.4-87.8-87.8s39.4-87.8,87.8-87.8,87.8,39.4,87.8,87.8-39.4,87.8-87.8,87.8Z"/>
  <g>
    <path class="st1" d="M355.7,11.7l-67.9,40.1c-12.2,7.2-28,4.6-37.1-6.4C227.9,17.9,193.2.6,154.6,1,88.1,1.8,33.7,56,32.8,122.5c-1,68.9,54.6,125,123.2,125h.3c14.8,0,26.9,11.8,26.9,26.6v75.5c0,25.6,20.8,46.4,46.4,46.4h326.6c25.6,0,46.4-20.8,46.4-46.4v-188.6c0-21.7-10.9-42-29.1-53.9L430.6,13.5c-22.6-14.8-51.6-15.5-74.9-1.8ZM156.1,200.8c-42.2,0-76.6-34.4-76.6-76.6s34.3-76.6,76.6-76.6,76.6,34.3,76.6,76.6-34.3,76.6-76.6,76.6ZM393,67.2c20.2,0,36.5,16.3,36.5,37s-16.3,37-36.5,37-36.5-16.3-36.5-37,16.3-37,36.5-37ZM501.6,176.3c-18.4,8.5-42.1,17.5-60,24.1-3.4,1.3-5.4,4.8-4.7,8.4,5.7,29.6,31.2,106.8,43.7,137.5.4,1-.1,2.1-1.1,2.4l-15,5.2c-9.3,3.2-19.5-1.2-23.4-10.2-12.6-28.5-28.7-62.9-40.8-82.5-3.3-5.3-11-5.3-14.2,0-12.1,19.6-28.2,54-40.8,82.5-4,9-14.2,13.4-23.4,10.2l-15-5.2c-1-.4-1.5-1.5-1.1-2.4,12.5-30.7,38-108,43.7-137.5.7-3.6-1.3-7.1-4.7-8.4-17.9-6.6-41.6-15.6-60-24.1-9-4.1-13.3-14.5-9.8-23.8l6-16c.4-1.1,1.7-1.6,2.7-1.1,13.5,6.9,60.9,28.8,109.6,28.8s96.1-21.8,109.6-28.8c1-.5,2.3,0,2.7,1.1l6,16c3.5,9.3-.8,19.6-9.8,23.8h0Z"/>
    <g>
      <path class="st1" d="M47,687.5c-14.4-8.8-25.6-21.3-33.7-37.4-8.1-16.1-12.2-34.9-12.2-56.3s4.1-40.1,12.2-56.3c8.1-16.1,19.4-28.6,33.7-37.4,14.4-8.8,30.5-13.2,48.6-13.2s34.5,4.4,48.9,13.2c14.4,8.8,25.6,21.3,33.7,37.4,8.1,16.1,12.2,34.9,12.2,56.3s-4.1,40.2-12.2,56.3c-8.1,16.1-19.4,28.6-33.7,37.4-14.4,8.8-30.6,13.2-48.9,13.2s-34.2-4.4-48.6-13.2h0ZM59.6,642.5c8.7,12.3,20.7,18.4,35.9,18.4s27.5-6.1,36.2-18.4c8.7-12.3,13.1-28.5,13.1-48.7s-4.4-36.4-13.1-48.7c-8.7-12.3-20.8-18.4-36.2-18.4s-27.2,6.1-35.9,18.4c-8.7,12.3-13.1,28.5-13.1,48.7s4.3,36.4,13.1,48.7Z"/>
      <path class="st1" d="M217.9,491.3h98.3c11.9,0,22.5,2.2,31.8,6.7,9.3,4.5,16.5,10.5,21.7,18.3,5.1,7.7,7.7,16.2,7.7,25.5s-3.3,21.3-9.8,28.8c-6.5,7.5-15.5,12.8-27,15.7,14.1,3,25,9,32.8,18,7.8,9,11.7,20.2,11.7,33.7s-2.7,20.5-8,29.4-13,15.9-22.9,21.1-21.2,7.7-33.9,7.7h-102.5v-204.9h0ZM308.5,571.2c7.1,0,13-1.8,17.5-5.5s6.8-8.9,6.8-15.6-2.3-12.2-6.8-15.9c-4.6-3.7-10.4-5.5-17.5-5.5h-46.6v42.5h46.6ZM313.5,657.9c7.5,0,13.9-2.2,19-6.5,5.1-4.3,7.7-10.5,7.7-18.4s-2.6-13.9-7.7-18.4c-5.1-4.5-11.5-6.8-19-6.8h-51.7v50.2h51.7Z"/>
      <path class="st1" d="M448.2,687.5c-14.4-8.8-25.6-21.3-33.7-37.4-8.1-16.1-12.2-34.9-12.2-56.3s4.1-40.1,12.2-56.3c8.1-16.1,19.4-28.6,33.7-37.4,14.4-8.8,30.5-13.2,48.6-13.2s34.5,4.4,48.9,13.2c14.3,8.8,25.6,21.3,33.7,37.4,8.1,16.1,12.2,34.9,12.2,56.3s-4.1,40.2-12.2,56.3c-8.1,16.1-19.4,28.6-33.7,37.4-14.4,8.8-30.6,13.2-48.9,13.2s-34.2-4.4-48.6-13.2h0ZM460.9,642.5c8.7,12.3,20.7,18.4,35.9,18.4s27.5-6.1,36.2-18.4c8.7-12.3,13.1-28.5,13.1-48.7s-4.4-36.4-13.1-48.7c-8.7-12.3-20.8-18.4-36.2-18.4s-27.2,6.1-35.9,18.4c-8.7,12.3-13.1,28.5-13.1,48.7s4.4,36.4,13.1,48.7Z"/>
      <path class="st1" d="M636.4,686c-15.4-10-25.6-24.2-30.6-42.6l41.3-19.3c1.6,12.3,6.9,22,15.9,29.2,9,7.2,19.5,10.8,31.6,10.8s20.2-2.5,26.1-7.4c5.9-5,8.9-11.2,8.9-18.7s-2.3-11.9-6.8-15.6c-4.6-3.7-11.9-6.4-22-8.2l-23.5-5c-43.2-8.5-64.7-27.9-64.7-58.2s3.2-21.8,9.5-31.6,15.3-17.7,26.9-23.6c11.6-5.9,24.9-8.9,40-8.9s37.7,4.6,51.8,13.8c14.2,9.2,24,21.7,29.5,37.6l-38.9,18.7c-2.4-10.9-7.5-19.2-15.3-25.1-7.8-5.8-17.1-8.8-27.8-8.8s-17.9,2.3-23.5,7c-5.5,4.7-8.3,10.3-8.3,17.1s2.4,10.8,7.3,14.1c4.8,3.3,12.8,6.1,23.9,8.5l23.2,4.5c20.6,4.4,36.3,11,47.1,19.9,10.8,8.9,16.2,22.5,16.2,40.7s-3.4,23.2-10.2,33.3c-6.8,10.1-16.3,18.1-28.5,24.1s-25.8,8.9-40.8,8.9c-23.4,0-42.8-5-58.2-15h0Z"/>
    </g>
  </g>
</svg>